<?xml version="1.0" encoding="UTF-8" standalone="no"?>
<svg width="20px" height="20px" viewBox="0 0 20 20" version="1.1" xmlns="http://www.w3.org/2000/svg" xmlns:xlink="http://www.w3.org/1999/xlink">
    <!-- Generator: Sketch 49.3 (51167) - http://www.bohemiancoding.com/sketch -->
    <title>icon / 20pt / pdf / action</title>
    <desc>Created with Sketch.</desc>
    <defs></defs>
    <g id="icon-/-20pt-/-pdf-/-action" stroke="none" stroke-width="1" fill="none" fill-rule="evenodd">
        <path d="M16.1071429,5.39285714 C16.4375,5.72321429 16.7142857,6.38392857 16.7142857,6.85714286 L16.7142857,17.1428571 C16.7142857,17.6160714 16.3303571,18 15.8571429,18 L3.85714286,18 C3.38392857,18 3,17.6160714 3,17.1428571 L3,2.85714286 C3,2.38392857 3.38392857,2 3.85714286,2 L11.8571429,2 C12.3303571,2 12.9910714,2.27678571 13.3214286,2.60714286 L16.1071429,5.39285714 Z M12.1428571,3.21428571 L12.1428571,6.57142857 L15.5,6.57142857 C15.4464286,6.41964286 15.3660714,6.26785714 15.3035714,6.20535714 L12.5089286,3.41071429 C12.4464286,3.34821429 12.2946429,3.26785714 12.1428571,3.21428571 Z M15.5714286,16.8571429 L15.5714286,7.71428571 L11.8571429,7.71428571 C11.3839286,7.71428571 11,7.33035714 11,6.85714286 L11,3.14285714 L4.14285714,3.14285714 L4.14285714,16.8571429 L15.5714286,16.8571429 Z M10.9821429,11.5625 C11.2053571,11.7410714 11.4553571,11.9017857 11.7321429,12.0625 C12.1071429,12.0178571 12.4553571,12 12.7767857,12 C13.375,12 14.1339286,12.0714286 14.3571429,12.4375 C14.4196429,12.5267857 14.4732143,12.6875 14.375,12.9017857 C14.3660714,12.9107143 14.3571429,12.9285714 14.3482143,12.9375 L14.3482143,12.9464286 C14.3214286,13.1071429 14.1875,13.2857143 13.7142857,13.2857143 C13.1428571,13.2857143 12.2767857,13.0267857 11.5267857,12.6339286 C10.2857143,12.7678571 8.98214286,13.0446429 8.02678571,13.375 C7.10714286,14.9464286 6.40178571,15.7142857 5.86607143,15.7142857 C5.77678571,15.7142857 5.69642857,15.6964286 5.61607143,15.6517857 L5.40178571,15.5446429 C5.375,15.5357143 5.36607143,15.5178571 5.34821429,15.5 C5.30357143,15.4553571 5.26785714,15.3571429 5.29464286,15.1785714 C5.38392857,14.7678571 5.86607143,14.0803571 6.97321429,13.5 C7.04464286,13.4553571 7.13392857,13.4821429 7.17857143,13.5535714 C7.1875,13.5625 7.19642857,13.5803571 7.19642857,13.5892857 C7.47321429,13.1339286 7.79464286,12.5535714 8.15178571,11.8303571 C8.55357143,11.0267857 8.86607143,10.2410714 9.08035714,9.49107143 C8.79464286,8.51785714 8.70535714,7.51785714 8.86607143,6.92857143 C8.92857143,6.70535714 9.0625,6.57142857 9.24107143,6.57142857 L9.4375,6.57142857 C9.57142857,6.57142857 9.67857143,6.61607143 9.75,6.70535714 C9.85714286,6.83035714 9.88392857,7.02678571 9.83035714,7.3125 C9.82142857,7.33928571 9.8125,7.36607143 9.79464286,7.38392857 C9.80357143,7.41071429 9.80357143,7.42857143 9.80357143,7.45535714 L9.80357143,7.72321429 C9.79464286,8.28571429 9.78571429,8.82142857 9.67857143,9.4375 C9.99107143,10.375 10.4553571,11.1339286 10.9821429,11.5625 Z M5.83928571,15.2321429 C6.10714286,15.1071429 6.49107143,14.7232143 7.0625,13.8214286 C6.39285714,14.3392857 5.97321429,14.9285714 5.83928571,15.2321429 Z M9.39285714,7.01785714 C9.30357143,7.26785714 9.30357143,7.69642857 9.375,8.19642857 C9.40178571,8.05357143 9.41964286,7.91964286 9.4375,7.80357143 C9.45535714,7.65178571 9.48214286,7.52678571 9.5,7.41964286 C9.50892857,7.39285714 9.51785714,7.375 9.53571429,7.34821429 C9.52678571,7.33928571 9.52678571,7.32142857 9.51785714,7.30357143 C9.50892857,7.14285714 9.45535714,7.04464286 9.40178571,6.98214286 C9.40178571,7 9.39285714,7.00892857 9.39285714,7.01785714 Z M8.28571429,12.9196429 C9.07142857,12.6071429 9.94642857,12.3571429 10.8214286,12.1964286 C10.7321429,12.125 10.6428571,12.0625 10.5625,11.9910714 C10.125,11.6071429 9.73214286,11.0714286 9.42857143,10.4196429 C9.25892857,10.9642857 9.00892857,11.5446429 8.6875,12.1785714 C8.55357143,12.4285714 8.41964286,12.6785714 8.28571429,12.9196429 Z M14.0535714,12.7767857 C14.0089286,12.7321429 13.7767857,12.5625 12.8035714,12.5625 C13.2410714,12.7232143 13.6428571,12.8125 13.9107143,12.8125 C13.9910714,12.8125 14.0357143,12.8125 14.0714286,12.8035714 C14.0714286,12.7946429 14.0625,12.7857143 14.0535714,12.7767857 Z" id="pdf" fill="#5D6795"></path>
    </g>
</svg>