<?xml version="1.0" encoding="UTF-8" standalone="no"?>
<svg width="25px" height="25px" viewBox="0 0 20 20" version="1.1" xmlns="http://www.w3.org/2000/svg" xmlns:xlink="http://www.w3.org/1999/xlink">
    <!-- Generator: Sketch 49.3 (51167) - http://www.bohemiancoding.com/sketch -->
    <title>icon / 20pt / view</title>
    <desc>Created with Sketch.</desc>
    <defs></defs>
    <g id="icon-/-20pt-/-view" stroke="none" stroke-width="1" fill="none" fill-rule="evenodd">
        <path d="M16,15.5231864 L16,17 C16,17.5522847 15.5522847,18 15,18 L5,18 C4.44771525,18 4,17.5522847 4,17 L4,3 C4,2.44771525 4.44771525,2 5,2 L15,2 C15.5522847,2 16,2.44771525 16,3 C16,4.77857069 16,7.11249871 16,8.00178406" id="Rectangle" stroke="#5D6795"></path>
        <path d="M16.4023824,13.2207799 L14.4051163,11.2720525 C14.7104948,10.7952572 14.8871677,10.2330619 14.8871677,9.63105751 C14.8871677,7.91051279 13.447435,6.51579955 11.6718842,6.51579955 C9.89690474,6.51579955 8.457172,7.91051279 8.457172,9.63105751 C8.457172,11.3516251 9.89690474,12.7463155 11.6718842,12.7463155 C12.4382669,12.7463155 13.1420337,12.4865735 13.694311,12.0524896 L15.6447751,13.9549862 C15.7495082,14.0562001 15.9191655,14.0562001 16.0238758,13.9549862 L16.4029766,13.5875859 C16.5071156,13.4863721 16.5071156,13.3219938 16.4023824,13.2207799 M9.35050056,9.65036791 C9.35050056,8.40193376 10.3947701,7.39041188 11.6829905,7.39041188 C12.971211,7.39041188 14.0154805,8.40193376 14.0154805,9.65036791 C14.0154805,10.8988249 12.971211,11.9103239 11.6829905,11.9103239 C10.3947701,11.9103239 9.35050056,10.8982307 9.35050056,9.65036791" id="Fill-4" fill="#5D6795"></path>
    </g>
</svg>
