<?xml version="1.0" standalone="no"?><!DOCTYPE svg PUBLIC "-//W3C//DTD SVG 1.1//EN" "http://www.w3.org/Graphics/SVG/1.1/DTD/svg11.dtd"><svg t="1525411899497" class="icon" style="" viewBox="0 0 1024 1024" version="1.1" xmlns="http://www.w3.org/2000/svg" p-id="12099" xmlns:xlink="http://www.w3.org/1999/xlink" width="36" height="36">
<defs><style type="text/css"></style></defs>
<circle fill="#004F8E" cx="512" cy="512" r="512"></circle>
<path d="M512 288c-88.376 0-160 77.218-160 160 0 44.062 22 64.688 64 139.812 36.906 65.968 67.718 125.876 67.718 125.876 15.282 29.718 40.344 29.75 55.656 0.062 0 0 31.032-60 68.624-125.938 42.812-75.124 64-95.718 64-139.812C672 365.218 600.376 288 512 288zM512 544c-53 0-96-43-96-96 0-53.016 43-96 96-96 53.032 0 96 42.984 96 96C608 501 565.032 544 512 544z" p-id="12100" fill="#FFFFFF">
</path>
</svg>