<?xml version="1.0" encoding="UTF-8" standalone="no"?>
<svg width="36px" height="36px" viewBox="0 0 36 36" version="1.1" xmlns="http://www.w3.org/2000/svg" xmlns:xlink="http://www.w3.org/1999/xlink">
    <!-- Generator: Sketch 49.3 (51167) - http://www.bohemiancoding.com/sketch -->
    <title>component / timeline / stop</title>
    <desc>Created with Sketch.</desc>
    <defs></defs>
    <g id="component-/-timeline-/-stop" stroke="none" stroke-width="1" fill="none" fill-rule="evenodd">
        <circle id="Oval-2" fill="#004F8E" cx="18" cy="18" r="18"></circle>
        <g id="icon-/-20dp-/-home" transform="translate(8.000000, 8.000000)">
            <rect id="Rectangle-5" x="0" y="0" width="20" height="20"></rect>
            <path d="M16,9 L16,16 C16,16.5522847 15.5522847,17 15,17 L5,17 C4.44771525,17 4,16.5522847 4,16 L4,9" id="Rectangle-6" stroke="#FFFFFF" stroke-width="1.2"></path>
            <path d="M9,12 L11,12 C11.5522847,12 12,12.4477153 12,13 L12,17 L8,17 L8,13 C8,12.4477153 8.44771525,12 9,12 Z" id="Rectangle-8" stroke="#FFFFFF" stroke-width="1.2"></path>
            <path d="M9.80617515,3.00113846 L2.63275165,8.74360636 C2.46029062,8.88166483 2.43240184,9.13339063 2.57046032,9.30585167 C2.64637148,9.400679 2.7612596,9.45587468 2.88272864,9.45587468 L17.1544303,9.45587468 C17.3753442,9.45587468 17.5544303,9.27678858 17.5544303,9.05587468 C17.5544303,8.9351268 17.4998851,8.82084057 17.4060101,8.74489625 L10.307732,3.00242835 C10.1616119,2.88421805 9.95290127,2.88368129 9.80617515,3.00113846 Z" id="Path-3" stroke="#FFFFFF" stroke-width="1.2"></path>
        </g>
    </g>
</svg>