<?xml version="1.0" standalone="no"?><!DOCTYPE svg PUBLIC "-//W3C//DTD SVG 1.1//EN" "http://www.w3.org/Graphics/SVG/1.1/DTD/svg11.dtd"><svg t="1525409009320" class="icon" style="" viewBox="0 0 1024 1024" version="1.1" xmlns="http://www.w3.org/2000/svg" p-id="11183" xmlns:xlink="http://www.w3.org/1999/xlink" width="200" height="200"><defs><style type="text/css"></style></defs><path d="M482.949243 621.714286q37.714286 0 73.142857-8.571429v374.285714q0 14.857143-10.857143 25.714286t-25.714286 10.857143H446.377814q-14.857143 0-25.714285-10.857143t-10.857143-25.714286v-374.285714q35.428571 8.571429 73.142857 8.571429zM482.949243 0q121.142857 0 206.857143 85.714286t85.714285 206.857143-85.714285 206.857142-206.857143 85.714286-206.857143-85.714286T190.377814 292.571429t85.714286-206.857143T482.949243 0z m0 128q8 0 13.142857-5.142857t5.142857-13.142857-5.142857-13.142857-13.142857-5.142858q-83.428571 0-142.285714 58.857143T281.806386 292.571429q0 8 5.142857 13.142857t13.142857 5.142857 13.142857-5.142857 5.142857-13.142857q0-68 48.285715-116.285715T482.949243 128z" p-id="11184" fill="#e8ac31"></path></svg>