<?xml version="1.0" encoding="UTF-8" standalone="no"?>
<svg width="36px" height="36px" viewBox="0 0 36 36" version="1.1" xmlns="http://www.w3.org/2000/svg" xmlns:xlink="http://www.w3.org/1999/xlink">
    <!-- Generator: Sketch 49.3 (51167) - http://www.bohemiancoding.com/sketch -->
    <title>component / timeline / stop loading</title>
    <desc>Created with Sketch.</desc>
    <defs></defs>
    <g id="Symbols" stroke="none" stroke-width="1" fill="none" fill-rule="evenodd">
        <g id="component-/-timeline-/-stop-loading">
            <circle id="Oval-2" fill="#004F8E" cx="18" cy="18" r="18"></circle>
            <g id="icon-/-20dp-/-home" transform="translate(8.000000, 8.000000)">
                <rect id="Rectangle-4" x="0" y="0" width="20" height="20"></rect>
                <path d="M16.8,10 L18,10 C18,14.418278 14.418278,18 10,18 C5.581722,18 2,14.418278 2,10 L3.2,10 C3.2,13.7555363 6.2444637,16.8 10,16.8 C13.7555363,16.8 16.8,13.7555363 16.8,10 Z M16.8,10 L18,10 C18,14.418278 14.418278,18 10,18 C5.581722,18 2,14.418278 2,10 L3.2,10 C3.2,13.7555363 6.2444637,16.8 10,16.8 C13.7555363,16.8 16.8,13.7555363 16.8,10 Z" id="Oval-3-Copy" fill="#FFFFFF" fill-rule="nonzero"></path>
                <path d="M6.78964904,9.96463405 L13.2292217,9.96463405" id="Path-7" stroke="#FFFFFF" stroke-width="1.2"></path>
                <path d="M10.0744134,7.30453641 L10.0744134,17.2445239" id="Path-8" stroke="#FFFFFF" stroke-width="1.2"></path>
                <circle id="Oval-3" stroke="#FFFFFF" stroke-width="1.2" cx="10" cy="5" r="2.4"></circle>
            </g>
        </g>
    </g>
</svg>