<?xml version="1.0" encoding="UTF-8" standalone="no"?>
<svg width="36px" height="36px" viewBox="0 0 36 36" version="1.1" xmlns="http://www.w3.org/2000/svg" xmlns:xlink="http://www.w3.org/1999/xlink">
    <!-- Generator: Sketch 49.3 (51167) - http://www.bohemiancoding.com/sketch -->
    <title>component / timeline / stop inactive</title>
    <desc>Created with Sketch.</desc>
    <defs></defs>
    <g id="Symbols" stroke="none" stroke-width="1" fill="none" fill-rule="evenodd">
        <g id="component-/-timeline-/-stop-inactive">
            <circle id="Oval-2" stroke="#004F8E" stroke-width="2" cx="18" cy="18" r="17"></circle>
            <g id="icon-/-20dp-/-mao-/-dark" transform="translate(8.000000, 8.000000)">
                <rect id="Rectangle-4" x="0" y="0" width="20" height="20"></rect>
                <circle id="Oval-3" stroke="#004F8E" stroke-width="1.5" cx="10" cy="5" r="2.25"></circle>
                <path d="M16.5,10 L18,10 C18,14.418278 14.418278,18 10,18 C5.581722,18 2,14.418278 2,10 L3.5,10 C3.5,13.5898509 6.41014913,16.5 10,16.5 C13.5898509,16.5 16.5,13.5898509 16.5,10 Z M16.5,10 L18,10 C18,14.418278 14.418278,18 10,18 C5.581722,18 2,14.418278 2,10 L3.5,10 C3.5,13.5898509 6.41014913,16.5 10,16.5 C13.5898509,16.5 16.5,13.5898509 16.5,10 Z" id="Oval-3-Copy" fill="#004F8E" fill-rule="nonzero"></path>
                <path d="M6.78964904,9.75 L13.2292217,9.75" id="Path-7" stroke="#004F8E" stroke-width="1.5"></path>
                <path d="M9.98502222,7.70723931 L9.98502222,17.3754554" id="Path-8" stroke="#004F8E" stroke-width="1.5"></path>
            </g>
        </g>
    </g>
</svg>